<svg xmlns="http://www.w3.org/2000/svg" xmlns:xlink="http://www.w3.org/1999/xlink" version="1.1" id="Layer_1" x="0px" y="0px" viewBox="0 0 44.3 44.3" style="enable-background:new 0 0 44.3 44.3" xml:space="preserve">
<style type="text/css">
	.st0{fill:#FFFFFF;}
	.st1{clip-path:url(#SVGID_2_);}
	.st2{fill:#ED273A;}
	.st3{fill:#03B155;}
	.st4{fill:#ED3725;}
</style>
<circle class="st0" cx="22.1" cy="22.1" r="22.1"/>
<g>
	<g>
		<defs>
			<circle id="SVGID_1_" cx="22.1" cy="22.1" r="22.1"/>
		</defs>
		<clipPath id="SVGID_2_">
			<use xlink:href="#SVGID_1_" style="overflow:visible;"/>
		</clipPath>
		<g class="st1">
			<rect x="9.8" y="-0.3" class="st2" width="79.5" height="29.7"/>
			<rect x="9.8" y="29.4" class="st3" width="80.8" height="15.1"/>
			<g>
				<g>
					<g>
						<polygon class="st2" points="1.3,6.8 1.3,7.4 1.6,7.4 1.6,8 2,8 2,8.7 1.6,8.7 1.6,9.3 1.3,9.3 1.3,9.9 0.8,9.9 0.8,9.3         0.4,9.3 0.4,8.7 0,8.7 0,8 0.4,8 0.4,7.4 0.8,7.4 0.8,6.8       "/>
						<polygon class="st2" points="1.3,37.4 1.3,36.8 1.6,36.8 1.6,36.2 2,36.2 2,35.5 1.6,35.5 1.6,34.8 1.3,34.8 1.3,34.3         0.8,34.3 0.8,34.8 0.4,34.8 0.4,35.5 0,35.5 0,36.2 0.4,36.2 0.4,36.8 0.8,36.8 0.8,37.4       "/>
						<polygon class="st2" points="5.2,4.3 5.2,5.2 5.7,5.2 5.7,6.1 6.3,6.1 6.3,6.8 7,6.8 7,7.7 7.5,7.7 7.5,6.8 8.2,6.8 8.2,6.1         8.8,6.1 8.8,5.2 9.3,5.2 9.3,4.3 9.8,4.3 9.8,3.1 9.3,3.1 9.3,2.1 8.8,2.1 8.8,0.9 8.2,0.9 8.2,0.1 6.3,0.1 6.3,0.9 5.7,0.9         5.7,2.1 5.2,2.1 5.2,3.1 4.6,3.1 4.6,2.1 4.1,2.1 4.1,0.9 3.5,0.9 3.5,0.1 1.7,0.1 1.7,0.9 1.1,0.9 1.1,2.1 0.5,2.1 0.5,3.1         0,3.1 0,4.3 0.5,4.3 0.5,5.2 1.1,5.2 1.1,6.1 1.7,6.1 1.7,6.8 2.3,6.8 2.3,7.7 2.8,7.7 2.8,6.8 3.5,6.8 3.5,6.1 4.1,6.1         4.1,5.2 4.6,5.2 4.6,4.3       "/>
						<polygon class="st2" points="8.5,6.8 8.5,7.4 8.2,7.4 8.2,8 7.8,8 7.8,8.7 8.2,8.7 8.2,9.3 8.5,9.3 8.5,9.9 9,9.9 9,9.3         9.4,9.3 9.4,8.7 9.8,8.7 9.8,8 9.4,8 9.4,7.4 9,7.4 9,6.8       "/>
						<polygon class="st2" points="5.1,8.7 5.1,9.3 5.4,9.3 5.4,9.9 5.9,9.9 5.9,9.3 6.3,9.3 6.3,8.7 6.7,8.7 6.7,8 6.3,8 6.3,7.4         5.9,7.4 5.9,6.8 5.4,6.8 5.4,7.4 5.1,7.4 5.1,8 4.7,8 4.7,7.4 4.4,7.4 4.4,6.8 3.9,6.8 3.9,7.4 3.5,7.4 3.5,8 3.1,8 3.1,8.7         3.5,8.7 3.5,9.3 3.9,9.3 3.9,9.9 4.4,9.9 4.4,9.3 4.7,9.3 4.7,8.7       "/>
						<polygon class="st2" points="5.2,39.9 5.2,39 5.7,39 5.7,38.1 6.3,38.1 6.3,37.4 7,37.4 7,36.5 7.5,36.5 7.5,37.4 8.2,37.4         8.2,38.1 8.8,38.1 8.8,39 9.3,39 9.3,39.9 9.8,39.9 9.8,41.1 9.3,41.1 9.3,42.1 8.8,42.1 8.8,43.3 8.2,43.3 8.2,44.1         6.3,44.1 6.3,43.3 5.7,43.3 5.7,42.1 5.2,42.1 5.2,41.1 4.6,41.1 4.6,42.1 4.1,42.1 4.1,43.3 3.5,43.3 3.5,44.1 1.7,44.1         1.7,43.3 1.1,43.3 1.1,42.1 0.5,42.1 0.5,41.1 0,41.1 0,39.9 0.5,39.9 0.5,39 1.1,39 1.1,38.1 1.7,38.1 1.7,37.4 2.3,37.4         2.3,36.5 2.8,36.5 2.8,37.4 3.5,37.4 3.5,38.1 4.1,38.1 4.1,39 4.6,39 4.6,39.9       "/>
						<polygon class="st2" points="8.5,37.4 8.5,36.8 8.2,36.8 8.2,36.2 7.8,36.2 7.8,35.5 8.2,35.5 8.2,34.8 8.5,34.8 8.5,34.3         9,34.3 9,34.8 9.4,34.8 9.4,35.5 9.8,35.5 9.8,36.2 9.4,36.2 9.4,36.8 9,36.8 9,37.4       "/>
						<polygon class="st2" points="5.1,36.2 5.1,36.8 5.4,36.8 5.4,37.4 5.9,37.4 5.9,36.8 6.3,36.8 6.3,36.2 6.7,36.2 6.7,35.5         6.3,35.5 6.3,34.8 5.9,34.8 5.9,34.3 5.4,34.3 5.4,34.8 5.1,34.8 5.1,35.5 4.7,35.5 4.7,34.8 4.4,34.8 4.4,34.3 3.9,34.3         3.9,34.8 3.5,34.8 3.5,35.5 3.1,35.5 3.1,36.2 3.5,36.2 3.5,36.8 3.9,36.8 3.9,37.4 4.4,37.4 4.4,36.8 4.7,36.8 4.7,36.2               "/>
						<polygon class="st2" points="5.3,31.3 5.3,32.4 5.9,32.4 5.9,33.4 6.5,33.4 6.5,34.4 6.9,34.4 6.9,35 7.5,35 7.5,34.4         7.9,34.4 7.9,33.5 8.8,33.5 8.8,32.4 9.4,32.4 9.4,31.5 9.8,31.5 9.8,30.2 9.4,30.2 9.4,29.3 8.8,29.3 8.8,28 8.3,28 8.3,27         7.7,27 7.7,28 7.1,28 7.1,29.3 6.7,29.3 6.7,30.2 7.3,30.2 7.3,31.5 6.6,31.5 6.6,30.6 6.1,30.6 6.1,29 5.5,29 5.5,27.9         6.1,27.9 6.1,26.9 6.6,26.9 6.6,25.8 7.2,25.8 7.2,24.7 7.8,24.7 7.8,23.6 8.3,23.6 8.3,24.6 8.8,24.6 8.8,25.5 9.2,25.5         9.2,26.6 9.5,26.6 9.5,27.4 9.8,27.4 9.8,24.2 9.4,24.2 9.4,23.2 8.9,23.2 8.9,22.5 8.4,22.5 8.4,21.7 8.9,21.7 8.9,21         9.4,21 9.4,20 9.8,20 9.8,16.7 9.5,16.7 9.5,17.6 9.2,17.6 9.2,18.7 8.8,18.7 8.8,19.5 8.3,19.5 8.3,20.6 7.8,20.6 7.8,19.5         7.2,19.5 7.2,18.3 6.6,18.3 6.6,17.2 6.1,17.2 6.1,16.3 5.5,16.3 5.5,15.1 6.1,15.1 6.1,13.5 6.6,13.5 6.6,12.7 7.3,12.7         7.3,14 6.7,14 6.7,14.9 7.1,14.9 7.1,16.2 7.7,16.2 7.7,17.2 8.3,17.2 8.3,16.2 8.8,16.2 8.8,14.9 9.4,14.9 9.4,14 9.8,14         9.8,12.7 9.4,12.7 9.4,11.8 8.8,11.8 8.8,10.7 7.9,10.7 7.9,9.8 7.5,9.8 7.5,9.2 6.9,9.2 6.9,9.8 6.5,9.8 6.5,10.8 5.9,10.8         5.9,11.8 5.3,11.8 5.3,12.9 4.5,12.9 4.5,11.8 3.9,11.8 3.9,10.8 3.3,10.8 3.3,9.8 2.9,9.8 2.9,9.2 2.3,9.2 2.3,9.8 1.9,9.8         1.9,10.7 1.1,10.7 1.1,11.8 0.4,11.8 0.4,12.7 0,12.7 0,14 0.4,14 0.4,14.9 1,14.9 1,16.2 1.5,16.2 1.5,17.2 2.1,17.2         2.1,16.2 2.7,16.2 2.7,14.9 3.1,14.9 3.1,14 2.5,14 2.5,12.7 3.2,12.7 3.2,13.5 3.7,13.5 3.7,15.1 4.3,15.1 4.3,16.3         3.7,16.3 3.7,17.2 3.2,17.2 3.2,18.3 2.6,18.3 2.6,19.5 2.1,19.5 2.1,20.6 1.5,20.6 1.5,19.5 1,19.5 1,18.7 0.6,18.7         0.6,17.6 0.3,17.6 0.3,16.7 0,16.7 0,20 0.4,20 0.4,21 1,21 1,21.7 1.4,21.7 1.4,22.5 1,22.5 1,23.2 0.4,23.2 0.4,24.2         0,24.2 0,27.4 0.3,27.4 0.3,26.6 0.6,26.6 0.6,25.5 1,25.5 1,24.6 1.5,24.6 1.5,23.6 2.1,23.6 2.1,24.7 2.6,24.7 2.6,25.8         3.2,25.8 3.2,26.9 3.7,26.9 3.7,27.9 4.3,27.9 4.3,29 3.7,29 3.7,30.6 3.2,30.6 3.2,31.5 2.5,31.5 2.5,30.2 3.1,30.2         3.1,29.3 2.7,29.3 2.7,28 2.1,28 2.1,27 1.5,27 1.5,28 1,28 1,29.3 0.4,29.3 0.4,30.2 0,30.2 0,31.5 0.4,31.5 0.4,32.4         1.1,32.4 1.1,33.5 1.9,33.5 1.9,34.4 2.3,34.4 2.3,35 2.9,35 2.9,34.4 3.3,34.4 3.3,33.4 3.9,33.4 3.9,32.4 4.5,32.4         4.5,31.3       "/>
						<polygon class="st0" points="5.3,27.3 5.3,26.3 5.8,26.3 5.8,25.4 6.2,25.4 6.2,24.2 6.8,24.2 6.8,23.1 7.4,23.1 7.4,22.5         7.9,22.5 7.9,21.7 7.4,21.7 7.4,21.1 6.8,21.1 6.8,20 6.2,20 6.2,18.8 5.8,18.8 5.8,17.9 5.3,17.9 5.3,16.9 4.5,16.9         4.5,17.9 4,17.9 4,18.8 3.6,18.8 3.6,20 3,20 3,21.1 2.4,21.1 2.4,21.7 2,21.7 2,22.5 2.4,22.5 2.4,23.1 3,23.1 3,24.2         3.6,24.2 3.6,25.4 4,25.4 4,26.3 4.5,26.3 4.5,27.3       "/>
						<polygon class="st2" points="5.2,23 5.2,23.5 5.6,23.5 5.6,24 6.1,24 6.1,23 5.6,23 5.6,22.4 5.3,22.4 5.3,21.7 5.6,21.7         5.6,21.2 6.1,21.2 6.1,20.1 5.6,20.1 5.6,20.7 5.2,20.7 5.2,21.2 4.6,21.2 4.6,20.7 4.2,20.7 4.2,20.1 3.7,20.1 3.7,21.2         4.2,21.2 4.2,21.7 4.6,21.7 4.6,22.4 4.2,22.4 4.2,23 3.7,23 3.7,24 4.2,24 4.2,23.5 4.6,23.5 4.6,23       "/>
					</g>
					<g>
						<polygon class="st0" points="2.8,6 2.8,5.2 3.3,5.2 3.3,4.2 3.9,4.2 3.9,3.2 3.3,3.2 3.3,2.2 2.8,2.2 2.8,1.4 2.3,1.4         2.3,2.2 1.8,2.2 1.8,3.2 1.3,3.2 1.3,4.2 1.8,4.2 1.8,5.2 2.3,5.2 2.3,6       "/>
						<polygon class="st0" points="2.8,38.2 2.8,39 3.3,39 3.3,40 3.9,40 3.9,41 3.3,41 3.3,41.9 2.8,41.9 2.8,42.7 2.3,42.7         2.3,41.9 1.8,41.9 1.8,41 1.3,41 1.3,40 1.8,40 1.8,39 2.3,39 2.3,38.2       "/>
						<polygon class="st0" points="7,6 7,5.2 6.5,5.2 6.5,4.2 6,4.2 6,3.2 6.5,3.2 6.5,2.2 7,2.2 7,1.4 7.5,1.4 7.5,2.2 8,2.2         8,3.2 8.5,3.2 8.5,4.2 8,4.2 8,5.2 7.5,5.2 7.5,6       "/>
						<polygon class="st0" points="7,38.2 7,39 6.5,39 6.5,40 6,40 6,41 6.5,41 6.5,41.9 7,41.9 7,42.7 7.5,42.7 7.5,41.9 8,41.9         8,41 8.5,41 8.5,40 8,40 8,39 7.5,39 7.5,38.2       "/>
					</g>
					<g>
						<rect x="0" y="0.9" class="st2" width="0.4" height="1"/>
						<rect x="4.7" y="5.5" class="st2" width="0.4" height="1"/>
						<rect x="4.7" y="0.1" class="st2" width="0.4" height="1.1"/>
						<rect x="4.7" y="18.9" class="st2" width="0.4" height="1.1"/>
						<rect x="0" y="5.5" class="st2" width="0.4" height="1"/>
						<rect x="0" y="10.3" class="st2" width="0.4" height="0.9"/>
						<rect x="0" y="15.3" class="st4" width="0.4" height="0.9"/>
						<rect x="0" y="42.4" class="st2" width="0.4" height="0.9"/>
						<rect x="2.4" y="40" class="st2" width="0.4" height="1.1"/>
						<rect x="4.7" y="37.7" class="st2" width="0.4" height="1"/>
						<rect x="4.7" y="43" class="st2" width="0.4" height="1.1"/>
						<rect x="4.7" y="24.2" class="st2" width="0.4" height="1.1"/>
						<rect x="0" y="37.7" class="st2" width="0.4" height="1"/>
						<rect x="0" y="32.9" class="st2" width="0.4" height="1.1"/>
						<rect x="0" y="28" class="st2" width="0.4" height="1"/>
						<rect x="0" y="21.6" class="st2" width="0.4" height="1"/>
						<rect x="3.1" y="21.6" class="st2" width="0.4" height="1"/>
						<rect x="9.3" y="0.9" class="st2" width="0.4" height="1"/>
						<rect x="7" y="3.2" class="st2" width="0.4" height="1.1"/>
						<rect x="9.3" y="5.5" class="st2" width="0.4" height="1"/>
						<rect x="9.3" y="10.3" class="st2" width="0.4" height="0.9"/>
						<rect x="9.3" y="15.3" class="st4" width="0.4" height="0.9"/>
						<rect x="9.3" y="42.4" class="st2" width="0.4" height="0.9"/>
						<rect x="7" y="40" class="st2" width="0.4" height="1.1"/>
						<rect x="9.3" y="37.7" class="st2" width="0.4" height="1"/>
						<rect x="9.3" y="32.9" class="st2" width="0.4" height="1.1"/>
						<rect x="9.3" y="28" class="st2" width="0.4" height="1"/>
						<rect x="9.3" y="21.6" class="st2" width="0.4" height="1"/>
						<rect x="6.3" y="21.6" class="st2" width="0.4" height="1"/>
						<rect x="4.7" y="10.2" class="st2" width="0.4" height="0.9"/>
						<rect x="4.7" y="33" class="st2" width="0.4" height="1.1"/>
					</g>
					<g>
						<rect x="0.9" y="8" class="st0" width="0.3" height="0.6"/>
						<rect x="4" y="8" class="st0" width="0.3" height="0.6"/>
						<rect x="0.9" y="35.5" class="st0" width="0.3" height="0.6"/>
						<rect x="4" y="35.5" class="st0" width="0.3" height="0.6"/>
						<rect x="8.6" y="8" class="st0" width="0.3" height="0.6"/>
						<rect x="5.5" y="8" class="st0" width="0.3" height="0.6"/>
						<rect x="8.6" y="35.5" class="st0" width="0.3" height="0.6"/>
						<rect x="5.5" y="35.5" class="st0" width="0.3" height="0.6"/>
					</g>
				</g>
				<rect x="2.4" y="3.2" class="st2" width="0.4" height="1.1"/>
			</g>
		</g>
	</g>
</g>
</svg>