<svg width="247" height="22" viewBox="0 0 247 22" fill="none" xmlns="http://www.w3.org/2000/svg">
<path d="M9.86959 21.336C14.6296 21.336 17.7936 18.956 17.7936 14.952C17.7936 11.228 14.9936 9.772 10.4856 8.792C7.76959 8.176 7.09759 7.784 7.09759 6.888C7.09759 6.132 7.74159 5.572 9.05759 5.572C10.7936 5.572 12.7536 6.244 14.5456 7.504L17.2616 3.668C15.1336 1.96 12.5296 1.064 9.19759 1.064C4.49359 1.064 1.60959 3.696 1.60959 7.336C1.60959 11.424 4.82959 12.6 9.00159 13.552C11.6616 14.168 12.3056 14.616 12.3056 15.428C12.3056 16.324 11.5216 16.828 10.0656 16.828C7.79759 16.828 5.64159 16.016 3.70959 14.476L0.685594 18.088C3.09359 20.244 6.39759 21.336 9.86959 21.336ZM24.4672 21.336C26.4552 21.336 27.8832 20.58 28.9192 19.432V21H34.1832V12.292C34.1832 10.164 33.7072 8.596 32.5592 7.476C31.3552 6.272 29.5072 5.628 26.7912 5.628C24.1872 5.628 22.3672 6.104 20.6592 6.804L21.7512 10.556C23.0952 10.024 24.3272 9.716 25.9232 9.716C27.9672 9.716 28.9472 10.612 28.9472 12.18V12.432C28.0792 12.124 26.7072 11.844 25.3072 11.844C21.7512 11.844 19.3712 13.468 19.3712 16.604C19.3712 19.684 21.5832 21.336 24.4672 21.336ZM26.3712 18.004C25.2792 18.004 24.4952 17.388 24.4952 16.352C24.4952 15.176 25.3912 14.42 26.9312 14.42C27.7152 14.42 28.4712 14.588 29.0032 14.812V15.512C29.0032 17.024 27.9112 18.004 26.3712 18.004ZM37.0009 21H42.3209V0.559999H37.0009V21ZM45.2835 21H50.6035V12.768C50.6035 11.116 51.4995 10.248 52.7595 10.248C54.0195 10.248 54.8315 11.116 54.8315 12.768V21H60.1515V12.768C60.1515 11.116 61.0755 10.248 62.3355 10.248C63.5955 10.248 64.4075 11.116 64.4075 12.768V21H69.7275V11.06C69.7275 7.532 67.7675 5.516 64.5475 5.516C62.3355 5.516 60.7955 6.468 59.4795 7.98C58.6675 6.412 57.1275 5.516 55.1115 5.516C52.9835 5.516 51.5835 6.664 50.6035 7.924V5.852H45.2835V21ZM80.1912 21.364C85.0632 21.364 88.5912 17.752 88.5912 13.44C88.5912 9.072 85.0912 5.516 80.2472 5.516C75.3752 5.516 71.8472 9.128 71.8472 13.44C71.8472 17.808 75.3472 21.364 80.1912 21.364ZM80.2472 16.856C78.3712 16.856 77.0272 15.288 77.0272 13.44C77.0272 11.564 78.2592 10.024 80.1912 10.024C82.0672 10.024 83.4112 11.592 83.4112 13.44C83.4112 15.316 82.1792 16.856 80.2472 16.856ZM90.8382 21H96.1582V12.796C96.1582 11.144 97.1102 10.248 98.3982 10.248C99.6582 10.248 100.526 11.144 100.526 12.796V21H105.846V11.088C105.846 7.644 103.914 5.516 100.694 5.516C98.5382 5.516 97.1382 6.72 96.1582 7.98V5.852H90.8382V21ZM118.524 21.336C122.108 21.336 125.216 18.34 125.216 13.412C125.216 8.512 122.108 5.516 118.496 5.516C116.228 5.516 114.94 6.608 113.904 7.868V0.559999H108.584V21H113.904V19.152C114.884 20.3 116.228 21.336 118.524 21.336ZM116.872 16.884C115.164 16.884 113.792 15.456 113.792 13.44C113.792 11.396 115.164 9.968 116.872 9.968C118.608 9.968 119.98 11.396 119.98 13.384C119.98 15.484 118.608 16.884 116.872 16.884ZM135.01 21.364C138.034 21.364 140.134 20.132 141.59 18.284L138.65 15.848C137.558 16.912 136.55 17.388 135.29 17.388C133.638 17.388 132.434 16.548 132.014 14.896H142.15C142.178 14.532 142.178 14.14 142.178 13.804C142.178 9.352 139.77 5.516 134.534 5.516C130.054 5.516 126.89 9.016 126.89 13.44C126.89 18.2 130.25 21.364 135.01 21.364ZM131.93 12.18C132.21 10.528 133.162 9.436 134.562 9.436C136.018 9.436 136.998 10.5 137.194 12.18H131.93ZM144.571 21H149.891V0.559999H144.571V21ZM152.966 21H158.286V0.559999H152.966V21ZM161.36 21H166.68V5.852H161.36V21ZM161.248 4.48H166.792V0.559999H161.248V4.48ZM177.147 21.364C180.171 21.364 182.271 20.132 183.727 18.284L180.787 15.848C179.695 16.912 178.687 17.388 177.427 17.388C175.775 17.388 174.571 16.548 174.151 14.896H184.287C184.315 14.532 184.315 14.14 184.315 13.804C184.315 9.352 181.907 5.516 176.671 5.516C172.191 5.516 169.027 9.016 169.027 13.44C169.027 18.2 172.387 21.364 177.147 21.364ZM174.067 12.18C174.347 10.528 175.299 9.436 176.699 9.436C178.155 9.436 179.135 10.5 179.331 12.18H174.067ZM192.616 21.336C196.312 21.336 198.804 19.6 198.804 16.268C198.804 13.272 196.424 12.264 193.428 11.396C191.832 10.92 190.964 10.64 190.964 10.052C190.964 9.576 191.384 9.268 192.196 9.268C193.4 9.268 195.108 9.8 196.676 10.668L198.496 7.308C196.76 6.188 194.464 5.544 192.252 5.544C188.752 5.544 186.176 7.336 186.176 10.556C186.176 13.664 188.556 14.644 191.552 15.456C193.148 15.876 193.988 16.156 193.988 16.744C193.988 17.332 193.568 17.612 192.644 17.612C191.076 17.612 189.172 17.024 187.436 15.876L185.448 19.096C187.548 20.608 190.068 21.336 192.616 21.336ZM207.484 21H213.196L214.596 17.5H222.156L223.584 21H229.408L221.064 1.26H215.828L207.484 21ZM216.192 13.272L218.404 7.7L220.588 13.272H216.192ZM238.737 21.336C243.497 21.336 246.661 18.956 246.661 14.952C246.661 11.228 243.861 9.772 239.353 8.792C236.637 8.176 235.965 7.784 235.965 6.888C235.965 6.132 236.609 5.572 237.925 5.572C239.661 5.572 241.621 6.244 243.413 7.504L246.129 3.668C244.001 1.96 241.397 1.064 238.065 1.064C233.361 1.064 230.477 3.696 230.477 7.336C230.477 11.424 233.697 12.6 237.869 13.552C240.529 14.168 241.173 14.616 241.173 15.428C241.173 16.324 240.389 16.828 238.933 16.828C236.665 16.828 234.509 16.016 232.577 14.476L229.553 18.088C231.961 20.244 235.265 21.336 238.737 21.336Z" fill="#00519C"/>
</svg>
